<svg width="55" height="39" viewBox="0 0 55 39" fill="none" xmlns="http://www.w3.org/2000/svg">
<g id="Acknowledgement Image 2" clip-path="url(#clip0_0_1271)">
<path id="Vector" d="M55.275 0H0V6.75995H55.275V0Z" fill="#009966"/>
<path id="Vector_2" d="M55.275 32.2399H-4.19617e-06V39H55.275V32.2399Z" fill="#009966"/>
<path id="Vector_3" d="M55.275 8.70998H-4.19617e-06V30.2899H55.275V8.70998Z" fill="#000099"/>
<path id="Vector_4" d="M55.275 6.75995H-4.19617e-06V8.70998H55.275V6.75995Z" fill="black"/>
<path id="Vector_5" d="M2.09808e-05 32.2402H55.275V30.2902H2.09808e-05V32.2402Z" fill="black"/>
<path id="Vector_6" d="M27.6378 22.0359L25.3631 23.7887L26.2267 20.9453L23.9574 19.1847L26.7656 19.1806L27.6378 16.3399L28.5095 19.1806L31.3176 19.1847L29.0482 20.9453L29.912 23.7887L27.6378 22.0359Z" fill="white"/>
<path id="Vector_7" d="M34.6101 26.2345C34.6349 26.1703 34.656 26.1093 34.6822 26.0501C35.0023 25.3283 35.2987 24.5968 35.5561 23.8483C35.9516 22.6968 36.2585 21.5223 36.435 20.3143C36.5145 19.7694 36.5574 19.22 36.5623 18.6701C36.5733 17.4411 36.399 16.2436 35.9477 15.0957C35.4527 13.8377 34.7737 12.8751 33.7755 11.9895C32.9887 11.2915 32.1098 10.7398 31.1721 10.2821C30.4158 9.91291 29.4489 9.48825 28.5857 9.26214L27.638 13.4085L26.6906 9.26214C25.8274 9.48825 24.8605 9.91291 24.1043 10.2821C23.1666 10.7398 22.2877 11.2915 21.5009 11.9895C20.5026 12.8751 19.8231 13.8373 19.3287 15.0957C18.8773 16.2436 18.7027 17.4415 18.7139 18.6701C18.7188 19.22 18.7619 19.7694 18.8414 20.3143C19.0175 21.5227 19.3242 22.6972 19.7203 23.8483C19.9776 24.5963 20.274 25.3278 20.5942 26.0501C20.6203 26.1089 20.6414 26.1703 20.6661 26.2345C20.6153 26.2882 17.0217 29.7478 17.0217 29.7478L23.622 27.276L23.6242 18.3542C23.6242 18.3542 23.6539 18.2794 23.7194 18.1858C24.0935 17.6497 24.5296 17.1755 25.0586 16.7962C25.7354 16.311 26.4647 16.017 27.2569 15.9515C27.3826 15.9409 27.5102 15.9363 27.6391 15.9377C27.7678 15.9363 27.8954 15.9414 28.0211 15.9515C28.8134 16.017 29.5427 16.311 30.2195 16.7962C30.748 17.1755 31.1842 17.6497 31.5587 18.1858C31.6242 18.2794 31.6539 18.3542 31.6539 18.3542L31.6561 27.276L38.2563 29.7478C38.2563 29.7478 34.661 26.2886 34.6101 26.2345Z" fill="white"/>
</g>
<defs>
<clipPath id="clip0_0_1271">
<rect width="55" height="39" fill="white"/>
</clipPath>
</defs>
</svg>
